<svg fill="none" height="112" viewBox="0 0 124 112" width="124" xmlns="http://www.w3.org/2000/svg">
    <ellipse cx="61.569" cy="107.538" fill="#FC974F" rx="61.569" ry="4.46152" />
    <path
        d="M86.8509 48.9438C86.8509 59.457 75.6649 67.9797 61.8664 67.9797C48.0678 67.9797 36.8818 59.457 36.8818 48.9438C36.8818 38.4306 48.0678 29.908 61.8664 29.908C75.6649 29.908 86.8509 38.4306 86.8509 48.9438Z"
        fill="#F96C00" />
    <g filter="url(#filter0_i_741:356)">
        <path
            d="M70.1943 36.1541C70.1943 39.6038 66.5988 42.4003 62.1635 42.4003C57.7283 42.4003 54.1328 39.6038 54.1328 36.1541C54.1328 32.7045 57.7283 29.908 62.1635 29.908C66.5988 29.908 70.1943 32.7045 70.1943 36.1541Z"
            fill="#F9C594" />
    </g>
    <path
        d="M69.6943 36.1541C69.6943 39.218 66.4469 41.9003 62.1635 41.9003C57.8802 41.9003 54.6328 39.218 54.6328 36.1541C54.6328 33.0903 57.8802 30.408 62.1635 30.408C66.4469 30.408 69.6943 33.0903 69.6943 36.1541Z"
        stroke="#D3D3D3" />
    <path
        d="M83.2818 19.4978C83.2818 28.5326 73.6938 35.8567 61.8665 35.8567C50.0391 35.8567 40.4512 28.5326 40.4512 19.4978C40.4512 10.463 50.0391 3.13889 61.8665 3.13889C73.6938 3.13889 83.2818 10.463 83.2818 19.4978Z"
        fill="#FFD7B1" />
    <ellipse cx="53.5383" cy="26.3388" fill="black" rx="1.78461" ry="2.97435" />
    <ellipse cx="70.1945" cy="26.3388" fill="black" rx="1.78461" ry="2.97435" />
    <path
        d="M45.8051 30.2054C45.3292 29.4916 46.5983 22.373 47.2923 18.9029C46.5983 17.4158 45.3293 15.0958 45.8051 17.7132C46.281 20.3306 44.6154 25.7439 43.7231 28.1234C44.6154 29.1149 46.281 30.9193 45.8051 30.2054Z"
        fill="#FDB979" />
    <path
        d="M46.3999 3.13887C49.9693 -1.62012 70.7897 -0.430384 76.7382 3.13886C82.6867 6.70811 84.4717 8.19521 86.2561 18.6055C88.0406 29.0157 46.3999 18.6055 46.3999 18.6055C46.3999 18.6055 42.8305 7.89785 46.3999 3.13887Z"
        fill="black" />
    <path
        d="M37.8657 13.8465C37.6598 11.7645 39.1475 4.03119 43.5172 3.43632C47.8869 2.84145 44.3177 11.7645 46.3997 18.3081C46.3997 18.3081 45.5074 29.0157 43.517 28.1234C41.5266 27.2311 38.0716 15.9286 37.8657 13.8465Z"
        fill="black" />
    <path
        d="M59.5819 29.6106C59.5819 29.7942 59.4888 30.0228 59.2047 30.2855C58.9201 30.5488 58.4808 30.809 57.896 31.0378C56.7295 31.4943 55.0838 31.7875 53.2409 31.7875C51.398 31.7875 49.7524 31.4943 48.5858 31.0378C48.001 30.809 47.5617 30.5488 47.2771 30.2855C46.993 30.0228 46.8999 29.7942 46.8999 29.6106C46.8999 29.427 46.993 29.1984 47.2771 28.9356C47.5617 28.6723 48.001 28.4122 48.5858 28.1833C49.7524 27.7269 51.398 27.4337 53.2409 27.4337C55.0838 27.4337 56.7295 27.7269 57.896 28.1833C58.4808 28.4122 58.9201 28.6723 59.2047 28.9356C59.4888 29.1984 59.5819 29.427 59.5819 29.6106Z"
        stroke="black" />
    <path
        d="M76.2379 29.6106C76.2379 29.7942 76.1448 30.0228 75.8608 30.2855C75.5761 30.5488 75.1369 30.809 74.552 31.0378C73.3855 31.4943 71.7398 31.7875 69.8969 31.7875C68.054 31.7875 66.4084 31.4943 65.2418 31.0378C64.657 30.809 64.2177 30.5488 63.9331 30.2855C63.649 30.0228 63.5559 29.7942 63.5559 29.6106C63.5559 29.427 63.649 29.1984 63.9331 28.9356C64.2177 28.6723 64.657 28.4122 65.2418 28.1833C66.4084 27.7269 68.054 27.4337 69.8969 27.4337C71.7398 27.4337 73.3855 27.7269 74.552 28.1833C75.1369 28.4122 75.5761 28.6723 75.8608 28.9356C76.1448 29.1984 76.2379 29.427 76.2379 29.6106Z"
        stroke="black" />
    <line stroke="black" x1="60.082" x2="63.6512" y1="29.408" y2="29.408" />
    <line stroke="black" x1="46.6209" x2="41.862" y1="29.6453" y2="24.2915" />
    <line stroke="black" x1="75.7898" x2="84.1179" y1="28.9596" y2="20.6314" />
    <path d="M35.9752 67.5745L32.6607 41.0208H90.4972L87.6562 67.5745H35.9752Z" fill="black"
        stroke="black" stroke-width="2" />
    <rect fill="#DB5C00" height="5.94869" width="108.861" x="7.7334" y="68.5745" />
    <rect fill="#964205" height="32.7178" width="86.8509" x="18.4412" y="74.5232" />
    <path
        d="M23.7949 68.5745C23.7949 66.8009 25.5111 65.5334 27.2063 66.055L27.6616 66.195L28.5885 66.0525C30.1342 65.8146 31.5282 67.0106 31.5282 68.5745H23.7949Z"
        fill="black" />
    <line stroke="#8A8888" stroke-width="0.6" x1="27.6638" x2="27.6638" y1="66.7899" y2="68.5745" />
    <ellipse cx="27.6612" cy="66.7899" fill="#4B4B4B" rx="0.297435" ry="0.594869" />
    <path
        d="M96.3687 67.1951C96.3687 66.6428 96.8164 66.1951 97.3687 66.1951H103.102C103.654 66.1951 104.102 66.6428 104.102 67.1951V68.5745H96.3687V67.1951Z"
        fill="black" />
    <path
        d="M106.977 57.8643C106.933 57.5465 106.903 57.3239 106.895 57.15C106.886 56.9786 106.901 56.8804 106.93 56.8065C106.993 56.6462 107.11 56.5127 107.26 56.4284C107.329 56.3894 107.425 56.362 107.596 56.3474C107.769 56.3325 107.994 56.3323 108.314 56.3323H114.167C114.488 56.3323 114.713 56.3325 114.886 56.3474C115.057 56.362 115.153 56.3894 115.222 56.4284C115.372 56.5127 115.489 56.6462 115.552 56.8065C115.581 56.8804 115.596 56.9786 115.587 57.15C115.578 57.3239 115.548 57.5465 115.505 57.8643L114.241 67.1565C114.207 67.4056 114.183 67.5784 114.154 67.7126C114.126 67.8437 114.097 67.9192 114.06 67.9766C113.983 68.0987 113.872 68.1957 113.74 68.256C113.678 68.2844 113.6 68.3036 113.466 68.3138C113.329 68.3243 113.155 68.3245 112.903 68.3245H109.579C109.327 68.3245 109.153 68.3243 109.016 68.3138C108.882 68.3036 108.803 68.2844 108.742 68.256C108.61 68.1957 108.499 68.0987 108.422 67.9766C108.385 67.9192 108.356 67.8437 108.327 67.7126C108.299 67.5784 108.275 67.4056 108.241 67.1565L106.977 57.8643Z"
        fill="#FFE7D1" stroke="#AB590D" stroke-width="0.5" />
    <path
        d="M107.049 60.2464C110.362 59.8397 112.151 59.8411 115.433 60.2464L114.787 65.0053C112.039 64.7891 110.469 64.7886 107.692 65.0053L107.049 60.2464Z"
        fill="#9B5416" />
    <circle cx="111.24" cy="62.6258" fill="white" r="1.78461" />
    <g clip-path="url(#clip0_741:356)">
        <path
            d="M110.546 61.6344H110.745V61.9318H110.546V61.6344ZM110.943 61.6344H111.141V61.9318H110.943V61.6344ZM111.34 61.6344H111.538V61.9318H111.34V61.6344ZM111.934 62.3284H111.736V62.2293C111.736 62.203 111.726 62.1777 111.707 62.1591C111.689 62.1406 111.663 62.1301 111.637 62.1301H110.447C110.421 62.1301 110.396 62.1406 110.377 62.1591C110.359 62.1777 110.348 62.203 110.348 62.2293V63.2207C110.348 63.2996 110.379 63.3752 110.435 63.431C110.491 63.4868 110.567 63.5181 110.646 63.5181H111.439C111.518 63.5181 111.593 63.4868 111.649 63.431C111.705 63.3752 111.736 63.2996 111.736 63.2207H111.934C112.044 63.2207 112.133 63.1318 112.133 63.0224V62.5267C112.133 62.4173 112.044 62.3284 111.934 62.3284ZM111.736 63.0224V62.5267H111.934L111.935 63.0224H111.736Z"
            fill="#9B5416" />
    </g>
    <rect fill="#8A460A" height="1.78461" rx="0.892304" width="10.7076" x="105.887" y="55.4874" />
    <path d="M107.672 53.7028H114.81L116 55.4874H106.482L107.672 53.7028Z" fill="#954B0A" />
    <path
        d="M105.292 80.4719C85.5424 75.9509 39.1624 79.9762 18.4412 82.554V74.5232H105.292V80.4719Z"
        fill="#622900" />
    <defs>
        <filter color-interpolation-filters="sRGB" filterUnits="userSpaceOnUse" height="16.4923"
            id="filter0_i_741:356" width="16.0615" x="54.1328" y="29.908">
            <feFlood flood-opacity="0" result="BackgroundImageFix" />
            <feBlend in="SourceGraphic" in2="BackgroundImageFix" mode="normal" result="shape" />
            <feColorMatrix in="SourceAlpha" result="hardAlpha" type="matrix"
                values="0 0 0 0 0 0 0 0 0 0 0 0 0 0 0 0 0 0 127 0" />
            <feOffset dy="4" />
            <feGaussianBlur stdDeviation="2" />
            <feComposite in2="hardAlpha" k2="-1" k3="1" operator="arithmetic" />
            <feColorMatrix type="matrix"
                values="0 0 0 0 1 0 0 0 0 0.756863 0 0 0 0 0.529412 0 0 0 1 0" />
            <feBlend in2="shape" mode="normal" result="effect1_innerShadow_741:356" />
        </filter>
        <clipPath id="clip0_741:356">
            <rect fill="white" height="2.37948" transform="translate(110.051 61.4361)"
                width="2.37948" />
        </clipPath>
    </defs>
</svg>
