<svg fill="none" height="156" viewBox="0 0 149 156" width="149" xmlns="http://www.w3.org/2000/svg">
    <path
        d="M32.0315 89.5573C37.7291 76.6894 51.9138 79.9404 58.2939 83.1744C74.3184 95.9402 89.0076 96.1955 95.0168 94.6636C101.026 93.1317 107.48 85.217 125.508 83.1744C143.536 81.1319 144.426 100.791 148.655 119.174C152.883 137.556 99.023 152.62 78.5472 155.428C58.0714 158.237 41.3792 143.429 29.3608 131.684C17.3424 119.94 24.9095 105.642 32.0315 89.5573Z"
        fill="#FFE2CC" />
    <rect fill="#FFB67E" height="102.036" rx="10" transform="rotate(-14.8428 57.7374 38.1143)"
        width="58.5009" x="57.7374" y="38.1143" />
    <rect fill="#FFEBDB" height="96.8998" rx="9.5" stroke="#FFC091"
        transform="rotate(-14.8428 60.6097 40.01)" width="53.9192" x="60.6097" y="40.01" />
    <path
        d="M73.847 35.9846L99.2362 29.2562C100.309 33.3049 97.8969 37.4567 93.8482 38.5297L83.1204 41.3726C79.0718 42.4456 74.9199 40.0333 73.847 35.9846Z"
        fill="#FFC090" />
    <g clip-path="url(#clip0)">
        <path d="M31.7325 55.4141L21.8299 52.3718" stroke="#FFAE6D" stroke-linecap="round"
            stroke-linejoin="round" stroke-width="1.5" />
        <path d="M29.0717 64.0791L12.9799 59.1355" stroke="#FFAE6D" stroke-linecap="round"
            stroke-linejoin="round" stroke-width="1.5" />
        <path d="M26.4097 72.7439L4.12888 65.8989" stroke="#FFAE6D" stroke-linecap="round"
            stroke-linejoin="round" stroke-width="1.5" />
    </g>
    <rect fill="white" height="35.3726" rx="6" transform="rotate(17.08 38.4094 47.6169)"
        width="53.7392" x="38.4094" y="47.6169" />
    <path
        d="M68.3141 75.7673L85.0264 68.1976L77.9334 91.2825L68.3141 75.7673ZM50.7712 72.5286L54.1359 78.02C54.6682 78.8682 55.4967 79.5364 56.5289 79.8536L56.5652 79.8648L56.5631 79.8641L56.593 79.8733C57.6274 80.1911 58.6888 80.1012 59.6154 79.6965L59.6076 79.6988L65.4753 77.0442L75.7438 93.6052L32.9822 80.4664L50.7712 72.5286ZM41.7427 51.8862L84.5492 65.0389L58.4107 76.8729C58.1224 76.9877 57.8052 77.0008 57.5105 76.9101L57.4806 76.9009L57.4827 76.9016L57.4528 76.8924C57.1569 76.8019 56.901 76.6118 56.7273 76.3533L56.7288 76.3561L41.7427 51.8862ZM39.5705 54.2286L49.1469 69.8756L32.4795 77.3069L39.5705 54.2286ZM87.3615 63.1096C86.9287 62.6913 86.3728 62.3541 85.7338 62.1577L42.3823 48.8377C41.7629 48.6475 41.1069 48.6063 40.4663 48.7173L40.4932 48.7137C39.7276 48.8424 39.0108 49.1853 38.4238 49.7036C37.8368 50.2218 37.4029 50.8948 37.1713 51.6465L29.0471 78.0876C28.7194 79.158 28.8229 80.3126 29.3348 81.298C29.8467 82.2834 30.7253 83.0191 31.7777 83.3438L75.1249 96.6625C76.178 96.9849 77.3181 96.8694 78.295 96.3414C79.2719 95.8135 80.0059 94.9162 80.3358 93.8465L88.4573 67.4141L88.46 67.4054C88.9453 65.8262 88.4703 64.1825 87.3689 63.1237L87.3487 63.1056L87.3615 63.1096Z"
        fill="#FFAE6D" />
    <path
        d="M33.0265 8.11449C32.6228 8.82953 32.6517 9.76231 33.1279 10.7365C33.6028 11.7082 34.5049 12.6711 35.7368 13.3665C36.9687 14.0618 38.2592 14.3366 39.3366 14.2411C40.4167 14.1454 41.2302 13.6881 41.6338 12.973C42.0374 12.258 42.0085 11.3252 41.5324 10.351C41.0574 9.37927 40.1554 8.41645 38.9234 7.72106C37.6915 7.02568 36.4011 6.75093 35.3237 6.84642C34.2436 6.94216 33.4301 7.39945 33.0265 8.11449Z"
        stroke="#75CDFF" />
    <path
        d="M108.575 17.006C108.575 17.7418 108.992 18.4551 109.761 19.0041C110.528 19.5524 111.614 19.9072 112.837 19.9072C114.06 19.9072 115.146 19.5524 115.914 19.0041C116.682 18.4551 117.099 17.7418 117.099 17.006C117.099 16.2701 116.682 15.5568 115.914 15.0078C115.146 14.4595 114.06 14.1047 112.837 14.1047C111.614 14.1047 110.528 14.4595 109.761 15.0078C108.992 15.5568 108.575 16.2701 108.575 17.006Z"
        stroke="#75CDFF" />
    <path
        d="M101.028 12.3193C99.8132 10.6351 96.8207 7.87569 94.5724 10.3109C92.3242 12.7461 90.1245 10.2333 89.3057 8.67248"
        stroke="#4BB543" />
    <path
        d="M41.5892 32.7443C39.8218 32.3171 36.4511 32.2638 37.1078 35.4692C37.7645 38.6745 34.9442 38.2866 33.4519 37.692"
        stroke="#4BB543" />
    <path
        d="M26.4984 13.5776L27.1566 17.9886L23.1649 19.9776L27.5634 20.7147L28.2216 25.1257L30.2818 21.1702L34.6803 21.9073L31.5551 18.7256L33.6153 14.7702L29.6236 16.7592L26.4984 13.5776Z"
        fill="#FDE984" />
    <path
        d="M72.9084 19.4812L73.0827 22.6247L69.4738 24.423L73.1904 24.5675L73.3647 27.711L75.4874 24.6568L79.2039 24.8013L76.7992 22.7692L78.9219 19.715L75.3131 21.5133L72.9084 19.4812Z"
        fill="#FFDE31" />
    <path
        d="M62.2491 15.7964L57.9465 15.4928L57.6626 12.9731L55.2873 15.3051L50.9847 15.0015L53.8194 16.7463L51.4441 19.0783L55.5713 17.8247L58.4059 19.5696L58.122 17.05L62.2491 15.7964Z"
        fill="#FFDA18" />
    <path d="M135.894 24.3015L128.728 30.2942L137.501 33.5045L135.894 24.3015Z" fill="#FF3333" />
    <path d="M66.9559 3.58579L67.3889 12.0263L75.1081 5.81555L66.9559 3.58579Z" fill="#FF8B8B" />
    <defs>
        <clipPath id="clip0">
            <rect fill="white" height="19.275"
                transform="matrix(-0.955907 -0.293669 -0.293669 0.955907 32.2632 55.1099)"
                width="24.4844" />
        </clipPath>
    </defs>
</svg>
