<svg fill="none" height="40" viewBox="0 0 110 40" width="110" xmlns="http://www.w3.org/2000/svg">
    <rect fill="#F96C00" height="40" rx="5" width="110" />
    <path
        d="M36.2658 25H42.7836V23.2251H38.4185V14.8182H36.2658V25ZM46.3469 25.1442C47.4755 25.1442 48.2063 24.652 48.5792 23.9411H48.6388V25H50.6474V19.8494C50.6474 18.0298 49.1062 17.2642 47.4059 17.2642C45.5763 17.2642 44.3732 18.1392 44.0799 19.5312L46.0387 19.6903C46.1829 19.1832 46.6353 18.8104 47.396 18.8104C48.1168 18.8104 48.5295 19.1733 48.5295 19.7997V19.8295C48.5295 20.3217 48.0075 20.3864 46.68 20.5156C45.1687 20.6548 43.8114 21.1619 43.8114 22.8672C43.8114 24.3786 44.8903 25.1442 46.3469 25.1442ZM46.9535 23.6825C46.3022 23.6825 45.8349 23.3793 45.8349 22.7976C45.8349 22.201 46.3271 21.9077 47.0728 21.8033C47.5352 21.7386 48.2908 21.6293 48.5444 21.4602V22.2706C48.5444 23.071 47.8832 23.6825 46.9535 23.6825ZM52.2905 27.8636H54.4084V23.777H54.473C54.7663 24.4134 55.4077 25.1243 56.6406 25.1243C58.3807 25.1243 59.7379 23.7472 59.7379 21.1918C59.7379 18.5668 58.321 17.2642 56.6456 17.2642C55.3679 17.2642 54.7564 18.0249 54.473 18.6463H54.3786V17.3636H52.2905V27.8636ZM54.3636 21.1818C54.3636 19.8196 54.9403 18.9496 55.9695 18.9496C57.0185 18.9496 57.5753 19.8594 57.5753 21.1818C57.5753 22.5142 57.0085 23.4389 55.9695 23.4389C54.9503 23.4389 54.3636 22.544 54.3636 21.1818ZM64.6001 25.1491C66.9169 25.1491 68.3587 23.5632 68.3587 21.2116C68.3587 18.8452 66.9169 17.2642 64.6001 17.2642C62.2834 17.2642 60.8416 18.8452 60.8416 21.2116C60.8416 23.5632 62.2834 25.1491 64.6001 25.1491ZM64.6101 23.5085C63.5412 23.5085 62.9943 22.5291 62.9943 21.1967C62.9943 19.8643 63.5412 18.88 64.6101 18.88C65.6591 18.88 66.206 19.8643 66.206 21.1967C66.206 22.5291 65.6591 23.5085 64.6101 23.5085ZM69.7358 25H71.8537V20.6797C71.8537 19.7401 72.5398 19.0938 73.4744 19.0938C73.7678 19.0938 74.1705 19.1435 74.3693 19.2081V17.3288C74.1804 17.2841 73.9169 17.2543 73.7031 17.2543C72.848 17.2543 72.147 17.7514 71.8686 18.696H71.7891V17.3636H69.7358V25Z"
        fill="white" />
</svg>
