<svg fill="none" height="92" viewBox="0 0 92 92" width="92" xmlns="http://www.w3.org/2000/svg">
    <path clip-rule="evenodd"
        d="M46 0.166626C20.6875 0.166626 0.166626 20.6875 0.166626 46C0.166626 71.3125 20.6875 91.8333 46 91.8333C71.3125 91.8333 91.8333 71.3125 91.8333 46C91.8333 20.6875 71.3125 0.166626 46 0.166626ZM65.8666 38.25C66.2324 37.8318 66.5109 37.3447 66.6857 36.8173C66.8605 36.2899 66.9281 35.7329 66.8844 35.1791C66.8408 34.6252 66.6868 34.0856 66.4315 33.5922C66.1763 33.0987 65.8249 32.6612 65.3981 32.3055C64.9713 31.9499 64.4776 31.6831 63.9462 31.5211C63.4148 31.359 62.8563 31.3048 62.3036 31.3617C61.751 31.4187 61.2153 31.5856 60.7281 31.8526C60.2408 32.1196 59.812 32.4814 59.4666 32.9166L41.55 54.4125L32.2791 45.1375C31.4933 44.3785 30.4408 43.9585 29.3483 43.968C28.2558 43.9775 27.2107 44.4157 26.4382 45.1882C25.6657 45.9607 25.2275 47.0058 25.218 48.0983C25.2085 49.1908 25.6285 50.2433 26.3875 51.0291L38.8875 63.5291C39.2969 63.9383 39.787 64.2577 40.3267 64.4669C40.8664 64.6761 41.4437 64.7706 42.0219 64.7443C42.6001 64.7181 43.1665 64.5716 43.685 64.3143C44.2035 64.057 44.6627 63.6945 45.0333 63.25L65.8666 38.25Z"
        fill="#4BB543" fill-rule="evenodd" />
</svg>
