<svg fill="none" height="100" viewBox="0 0 100 100" width="100" xmlns="http://www.w3.org/2000/svg">
    <path clip-rule="evenodd"
        d="M50 0C22.3864 0 0 22.3864 0 50C0 77.6136 22.3864 100 50 100C77.6136 100 100 77.6136 100 50C100 22.3864 77.6136 0 50 0ZM66.85 39.5773C67.678 38.72 68.1361 37.5718 68.1258 36.38C68.1154 35.1882 67.6374 34.0481 66.7946 33.2054C65.9519 32.3626 64.8118 31.8846 63.62 31.8742C62.4282 31.8639 61.28 32.322 60.4227 33.15L50 43.5727L39.5773 33.15C39.158 32.7159 38.6564 32.3696 38.1018 32.1314C37.5473 31.8931 36.9508 31.7677 36.3473 31.7625C35.7437 31.7573 35.1452 31.8723 34.5866 32.1008C34.028 32.3294 33.5204 32.6669 33.0937 33.0937C32.6669 33.5204 32.3294 34.028 32.1008 34.5866C31.8723 35.1452 31.7573 35.7437 31.7625 36.3473C31.7677 36.9508 31.8931 37.5473 32.1314 38.1018C32.3696 38.6564 32.7159 39.158 33.15 39.5773L43.5727 50L33.15 60.4227C32.7159 60.842 32.3696 61.3436 32.1314 61.8982C31.8931 62.4527 31.7677 63.0492 31.7625 63.6527C31.7573 64.2563 31.8723 64.8548 32.1008 65.4134C32.3294 65.972 32.6669 66.4796 33.0937 66.9063C33.5204 67.3331 34.028 67.6706 34.5866 67.8992C35.1452 68.1277 35.7437 68.2427 36.3473 68.2375C36.9508 68.2323 37.5473 68.1069 38.1018 67.8686C38.6564 67.6304 39.158 67.2841 39.5773 66.85L50 56.4273L60.4227 66.85C61.28 67.678 62.4282 68.1361 63.62 68.1258C64.8118 68.1154 65.9519 67.6374 66.7946 66.7946C67.6374 65.9519 68.1154 64.8118 68.1258 63.62C68.1361 62.4282 67.678 61.28 66.85 60.4227L56.4273 50L66.85 39.5773Z"
        fill="#FF3333" fill-rule="evenodd" />
</svg>
