<svg width="49" height="49" viewBox="0 0 49 49" fill="none" xmlns="http://www.w3.org/2000/svg">
    <path d="M34.7083 7.14588C34.7083 6.87514 34.6008 6.61549 34.4093 6.42404C34.2179 6.2326 33.9582 6.12505 33.6875 6.12505H28.5833C26.0131 5.99702 23.4967 6.89147 21.5839 8.61298C19.6711 10.3345 18.5175 12.7431 18.375 15.3125V20.825H13.2708C13.0001 20.825 12.7404 20.9326 12.549 21.124C12.3576 21.3155 12.25 21.5751 12.25 21.8459V27.1542C12.25 27.425 12.3576 27.6846 12.549 27.8761C12.7404 28.0675 13.0001 28.175 13.2708 28.175H18.375V41.8542C18.375 42.125 18.4825 42.3846 18.674 42.5761C18.8654 42.7675 19.1251 42.875 19.3958 42.875H25.5208C25.7916 42.875 26.0512 42.7675 26.2427 42.5761C26.4341 42.3846 26.5417 42.125 26.5417 41.8542V28.175H31.8908C32.1178 28.1783 32.3395 28.1058 32.5206 27.969C32.7018 27.8322 32.8322 27.6389 32.8912 27.4196L34.3612 22.1113C34.4019 21.9605 34.4073 21.8023 34.3772 21.649C34.3471 21.4958 34.2822 21.3514 34.1875 21.2272C34.0929 21.1029 33.9709 21.0021 33.8312 20.9324C33.6914 20.8626 33.5375 20.8259 33.3812 20.825H26.5417V15.3125C26.5924 14.8072 26.8298 14.3389 27.2073 13.9991C27.5848 13.6594 28.0754 13.4725 28.5833 13.475H33.6875C33.9582 13.475 34.2179 13.3675 34.4093 13.1761C34.6008 12.9846 34.7083 12.725 34.7083 12.4542V7.14588Z"
            fill="#2A84D8" />
</svg>
