<svg width="168" height="170" viewBox="0 0 168 170" fill="none" xmlns="http://www.w3.org/2000/svg">
    <path
        d="M25.9255 99.8415C32.8526 86.2079 50.0981 89.6524 57.8549 93.0788C77.3372 106.604 95.1961 106.875 102.502 105.252C109.808 103.629 117.655 95.2429 139.573 93.0788C161.49 90.9147 162.573 111.744 167.714 131.22C172.855 150.697 107.373 166.657 82.4785 169.632C57.5844 172.608 37.2902 156.918 22.6785 144.475C8.06674 132.032 17.2667 116.883 25.9255 99.8415Z"
        fill="#FFE2CC" />
    <circle r="4.6902" stroke="#75CDFF" transform="matrix(-1 0 0 1 134.046 23.552)" />
    <path
        d="M75.001 16.9049C75.001 17.5992 75.3941 18.2749 76.1246 18.7967C76.8542 19.3178 77.8877 19.6558 79.0523 19.6558C80.2169 19.6558 81.2503 19.3178 81.9799 18.7967C82.7104 18.2749 83.1035 17.5992 83.1035 16.9049C83.1035 16.2105 82.7104 15.5348 81.9799 15.013C81.2503 14.4919 80.2169 14.1539 79.0523 14.1539C77.8877 14.1539 76.8542 14.4919 76.1246 15.013C75.3941 15.5348 75.001 16.2105 75.001 16.9049Z"
        stroke="#75CDFF" />
    <path
        d="M124.794 13.1717C123.206 11.9796 119.692 10.3108 118.331 13.1717C116.971 16.0325 114.25 14.3637 113.059 13.1717"
        stroke="#4BB543" />
    <path
        d="M64.605 37.3856C63.3738 36.159 60.6474 34.4417 59.592 37.3856C58.5367 40.3295 56.4259 38.6122 55.5025 37.3856"
        stroke="#4BB543" />
    <path
        d="M42.5486 21.4298L43.1777 25.6459L39.3624 27.5471L43.5665 28.2516L44.1957 32.4677L46.1648 28.687L50.369 29.3915L47.3819 26.3504L49.351 22.5698L45.5357 24.4709L42.5486 21.4298Z"
        fill="#F9DE52" />
    <path
        d="M95.8047 15.1114L96.4338 19.3274L92.6185 21.2286L96.8226 21.9331L97.4517 26.1492L99.4209 22.3685L103.625 23.073L100.638 20.032L102.607 16.2513L98.7918 18.1525L95.8047 15.1114Z"
        fill="#FFDE31" />
    <path
        d="M76.7195 23.5509L72.607 23.2606L72.3356 20.8523L70.0654 23.0813L65.9529 22.791L68.6623 24.4588L66.392 26.6877L70.3368 25.4896L73.0461 27.1573L72.7748 24.749L76.7195 23.5509Z"
        fill="#FFE977" />
    <path d="M48.2826 6.97304L41.4324 12.7009L49.8179 15.7694L48.2826 6.97304Z" fill="#FF3333" />
    <path d="M105.082 3.42734L105.496 11.4949L112.874 5.55857L105.082 3.42734Z" fill="#FF8B8B" />
    <rect fill="#FFAE6D" height="96.7475" rx="10" transform="rotate(22.5488 91.9521 31.3702)"
        width="64.2819" x="91.9521" y="31.3702" />
    <path
        d="M94.99 40.5254C94.8624 40.5781 94.8017 40.7243 94.8544 40.8519L95.7137 42.9314C95.7664 43.059 95.9126 43.1197 96.0402 43.0669C96.1678 43.0142 96.2285 42.868 96.1758 42.7404L95.412 40.892L97.2604 40.1282C97.388 40.0755 97.4487 39.9293 97.396 39.8017C97.3433 39.6741 97.1971 39.6134 97.0695 39.6661L94.99 40.5254ZM99.0792 42.144L95.1813 40.5255L94.9896 40.9873L98.8875 42.6058L99.0792 42.144Z"
        fill="#828282" />
    <rect fill="#FFBC87" height="7.14244" rx="3.57122" transform="rotate(22.5488 88.2181 69.215)"
        width="42.53" x="88.2181" y="69.215" />
    <rect fill="#FFBC87" height="7.14244" rx="3.57122" transform="rotate(22.5488 84.2342 78.8097)"
        width="42.53" x="84.2342" y="78.8097" />
    <rect fill="#FDA15B" height="7.14244" rx="3.57122" transform="rotate(22.5488 78.134 93.5018)"
        width="42.53" x="78.134" y="93.5018" />
    <line stroke="#FFDCC2" stroke-width="2" x1="83.3835" x2="110.069" y1="100.076" y2="111.157" />
    <path
        d="M32.2068 90.4931C19.9717 78.0069 17.3586 60.3298 26.3705 51.01C35.3823 41.6903 52.6064 44.2572 64.8416 56.7433"
        stroke="#FCC295" stroke-linecap="round" stroke-width="3" />
    <path
        d="M65.6638 56.1664L31.7094 91.2809L56.3825 115.139C60.1543 118.786 66.1685 118.685 69.8157 114.913L90.5626 93.4575C94.2098 89.6857 94.1087 83.6715 90.337 80.0243L65.6638 56.1664Z"
        fill="#FFBC87" stroke="#FFAF70" />
    <path clip-rule="evenodd"
        d="M64.9552 91.1549C62.6197 93.0889 59.1594 93.0026 56.9358 90.8525C54.5487 88.5442 54.491 84.7315 56.8068 82.3366C59.1227 79.9416 62.9351 79.8713 65.3222 82.1796C67.5458 84.3297 67.7482 87.7854 65.8936 90.1845L74.7014 92.3734L67.4386 99.8843L64.9552 91.1549Z"
        fill="#FF9B52" fill-rule="evenodd" />
</svg>
