<svg width="189" height="199" viewBox="0 0 189 199" fill="none" xmlns="http://www.w3.org/2000/svg">
    <path d="M25.4821 101.6C33.4332 82.6722 53.2282 87.4541 62.1318 92.211C84.4942 110.988 104.993 111.364 113.379 109.11C121.765 106.857 130.772 95.2154 155.93 92.211C181.088 89.2067 182.33 118.123 188.231 145.162C194.133 172.201 118.97 194.358 90.3955 198.489C61.8212 202.62 38.5269 180.839 21.755 163.564C4.98317 146.289 15.5433 125.259 25.4821 101.6Z"
            fill="#E0E0E0" />
    <path d="M162.862 151.745C158.938 171.529 146.335 148.467 125.947 144.423C105.56 140.38 85.1087 156.885 89.0327 137.102C92.9566 117.318 112.665 104.558 133.052 108.602C153.439 112.646 166.786 131.961 162.862 151.745Z"
            fill="#AAAAAA" />
    <ellipse cx="139.006" cy="76.6481" rx="28.2252" ry="27.3893"
            transform="rotate(11.2186 139.006 76.6481)" fill="#AAAAAA" />
    <g clip-path="url(#clip0)">
        <path d="M44.1752 62.7223C19.816 75.2519 10.1927 105.261 22.7222 129.62C35.2518 153.979 65.2605 163.602 89.6197 151.073C113.979 138.543 123.602 108.534 111.073 84.1752C98.543 59.8161 68.5343 50.1928 44.1752 62.7223Z"
                fill="#7E7E7E" />
        <path d="M84.4718 86.0198L72.851 122.256C72.5024 123.343 71.7459 124.189 70.8035 124.673C69.8612 125.158 68.733 125.281 67.6459 124.933L49.5282 119.123C47.3482 118.424 46.1513 116.097 46.8509 113.918C47.5494 111.738 49.8756 110.541 52.056 111.24L66.2325 115.787L76.5894 83.492C77.2879 81.312 79.6141 80.1155 81.7945 80.8147C83.9738 81.5136 85.1703 83.8398 84.4718 86.0198Z"
                fill="#FAFAFA" />
    </g>
    <circle cx="33.4187" cy="36.2236" r="7.48266" stroke="#7E7E7E" />
    <path d="M124.5 26C124.5 27.1773 123.833 28.2904 122.659 29.1287C121.486 29.9663 119.841 30.5 118 30.5C116.159 30.5 114.514 29.9663 113.341 29.1287C112.167 28.2904 111.5 27.1773 111.5 26C111.5 24.8227 112.167 23.7096 113.341 22.8713C114.514 22.0337 116.159 21.5 118 21.5C119.841 21.5 121.486 22.0337 122.659 22.8713C123.833 23.7096 124.5 24.8227 124.5 26Z"
            stroke="#7E7E7E" />
    <path d="M47.6487 20.2584C50.0899 18.425 55.4955 15.8583 57.588 20.2584C59.6805 24.6584 63.8655 22.0917 65.6964 20.2584"
            stroke="#7E7E7E" />
    <path d="M174.144 32.9597L173.176 39.4441L179.044 42.3682L172.578 43.4517L171.61 49.9362L168.582 44.1214L162.116 45.2049L166.71 40.5277L163.681 34.7129L169.549 37.6369L174.144 32.9597Z"
            fill="#C4C4C4" />
    <path d="M92.2345 23.2417L91.2669 29.7261L97.135 32.6501L90.6689 33.7337L89.7013 40.2181L86.6726 34.4034L80.2066 35.4869L84.8008 30.8096L81.7722 24.9949L87.6403 27.9189L92.2345 23.2417Z"
            fill="#989898" />
    <path d="M141.446 26.7247L151.982 35.5343L139.085 40.2537L141.446 26.7247Z" fill="#7E7E7E" />
    <path d="M77.9654 5.27134L77.3289 17.6794L65.9812 8.54922L77.9654 5.27134Z" fill="#C4C4C4" />
    <defs>
        <clipPath id="clip0">
            <rect width="99.3528" height="99.3528" fill="white"
                    transform="translate(0 85.4446) rotate(-27.2198)" />
        </clipPath>
    </defs>
</svg>
