<svg width="149" height="157" viewBox="0 0 149 157" fill="none" xmlns="http://www.w3.org/2000/svg">
    <path d="M68.8849 11H75.4027V9.22514H71.0376V0.818182H68.8849V11ZM80.2388 11.1491C82.5556 11.1491 83.9973 9.56321 83.9973 7.21165C83.9973 4.84517 82.5556 3.2642 80.2388 3.2642C77.9221 3.2642 76.4803 4.84517 76.4803 7.21165C76.4803 9.56321 77.9221 11.1491 80.2388 11.1491ZM80.2488 9.50852C79.1799 9.50852 78.633 8.52912 78.633 7.19673C78.633 5.86435 79.1799 4.87997 80.2488 4.87997C81.2978 4.87997 81.8446 5.86435 81.8446 7.19673C81.8446 8.52912 81.2978 9.50852 80.2488 9.50852ZM88.8148 14.0227C90.9973 14.0227 92.5485 13.0284 92.5485 11.0746V3.36364H90.4455V4.64631H90.3659C90.0826 4.02486 89.4611 3.2642 88.1834 3.2642C86.508 3.2642 85.0911 4.56676 85.0911 7.1669C85.0911 9.70739 86.4682 10.8906 88.1884 10.8906C89.4064 10.8906 90.0875 10.2791 90.3659 9.64773H90.4554V11.0447C90.4554 12.0938 89.7843 12.5014 88.8645 12.5014C87.9299 12.5014 87.4576 12.0938 87.2836 11.6314L85.3248 11.8949C85.5783 13.098 86.7566 14.0227 88.8148 14.0227ZM88.8596 9.29972C87.8205 9.29972 87.2537 8.47443 87.2537 7.15696C87.2537 5.85938 87.8105 4.94957 88.8596 4.94957C89.8887 4.94957 90.4654 5.8196 90.4654 7.15696C90.4654 8.50426 89.8787 9.29972 88.8596 9.29972ZM97.6841 11.1491C100.001 11.1491 101.443 9.56321 101.443 7.21165C101.443 4.84517 100.001 3.2642 97.6841 3.2642C95.3674 3.2642 93.9256 4.84517 93.9256 7.21165C93.9256 9.56321 95.3674 11.1491 97.6841 11.1491ZM97.6941 9.50852C96.6252 9.50852 96.0783 8.52912 96.0783 7.19673C96.0783 5.86435 96.6252 4.87997 97.6941 4.87997C98.7431 4.87997 99.29 5.86435 99.29 7.19673C99.29 8.52912 98.7431 9.50852 97.6941 9.50852Z"
            fill="white" />
    <path d="M32.0315 90.5573C37.7291 77.6894 51.9138 80.9404 58.294 84.1744C74.3185 96.9402 89.0077 97.1955 95.0169 95.6636C101.026 94.1317 107.48 86.217 125.508 84.1744C143.536 82.1319 144.426 101.791 148.655 120.174C152.883 138.556 99.023 153.62 78.5472 156.428C58.0714 159.237 41.3792 144.429 29.3608 132.684C17.3424 120.94 24.9095 106.642 32.0315 90.5573Z"
            fill="#CBCBCB" />
    <rect x="57.7374" y="39.1143" width="58.5009" height="102.036" rx="10"
            transform="rotate(-14.8428 57.7374 39.1143)" fill="#747474" />
    <rect x="60.6098" y="41.01" width="53.9192" height="96.8998" rx="9.5"
            transform="rotate(-14.8428 60.6098 41.01)" fill="#ECECEC" stroke="#AAAAAA" />
    <path d="M73.847 36.9846L99.2363 30.2562C100.309 34.3049 97.8969 38.4567 93.8483 39.5297L83.1204 42.3726C79.0718 43.4456 74.9199 41.0333 73.847 36.9846Z"
            fill="#747474" />
    <g clip-path="url(#clip0)">
        <path d="M31.7325 56.4141L21.8299 53.3718" stroke="#747474" stroke-width="1.5"
                stroke-linecap="round" stroke-linejoin="round" />
        <path d="M29.0717 65.0791L12.98 60.1355" stroke="#747474" stroke-width="1.5"
                stroke-linecap="round" stroke-linejoin="round" />
        <path d="M26.4098 73.7439L4.12891 66.8989" stroke="#747474" stroke-width="1.5"
                stroke-linecap="round" stroke-linejoin="round" />
    </g>
    <rect x="38.4095" y="48.6169" width="53.7392" height="35.3726" rx="6"
            transform="rotate(17.08 38.4095 48.6169)" fill="white" />
    <path d="M68.3141 76.7673L85.0264 69.1976L77.9334 92.2825L68.3141 76.7673ZM50.7713 73.5286L54.136 79.02C54.6682 79.8682 55.4967 80.5364 56.5289 80.8536L56.5653 80.8648L56.5631 80.8641L56.593 80.8733C57.6274 81.1911 58.6888 81.1012 59.6154 80.6965L59.6077 80.6988L65.4753 78.0442L75.7439 94.6052L32.9823 81.4664L50.7713 73.5286ZM41.7427 52.8862L84.5492 66.0389L58.4107 77.8729C58.1224 77.9877 57.8052 78.0008 57.5105 77.9101L57.4806 77.9009L57.4827 77.9016L57.4528 77.8924C57.1569 77.8019 56.9011 77.6118 56.7274 77.3533L56.7288 77.3561L41.7427 52.8862ZM39.5706 55.2286L49.147 70.8756L32.4795 78.3069L39.5706 55.2286ZM87.3616 64.1096C86.9288 63.6913 86.3728 63.3541 85.7338 63.1577L42.3824 49.8377C41.7629 49.6475 41.107 49.6063 40.4664 49.7173L40.4932 49.7137C39.7276 49.8424 39.0108 50.1853 38.4238 50.7036C37.8368 51.2218 37.403 51.8948 37.1713 52.6465L29.0471 79.0876C28.7194 80.158 28.8229 81.3126 29.3348 82.298C29.8468 83.2834 30.7253 84.0191 31.7777 84.3438L75.1249 97.6625C76.178 97.9849 77.3181 97.8694 78.295 97.3414C79.272 96.8135 80.0059 95.9162 80.3358 94.8465L88.4574 68.4141L88.46 68.4054C88.9453 66.8262 88.4703 65.1825 87.3689 64.1237L87.3488 64.1056L87.3616 64.1096Z"
            fill="#747474" />
    <path d="M33.0265 9.11449C32.6228 9.82953 32.6517 10.7623 33.1279 11.7365C33.6028 12.7082 34.5049 13.6711 35.7368 14.3665C36.9687 15.0618 38.2592 15.3366 39.3366 15.2411C40.4167 15.1454 41.2302 14.6881 41.6338 13.973C42.0374 13.258 42.0085 12.3252 41.5324 11.351C41.0574 10.3793 40.1554 9.41645 38.9234 8.72106C37.6915 8.02568 36.4011 7.75093 35.3237 7.84642C34.2436 7.94216 33.4301 8.39945 33.0265 9.11449Z"
            stroke="#7E7E7E" />
    <path d="M108.575 18.006C108.575 18.7418 108.992 19.4551 109.761 20.0041C110.528 20.5524 111.614 20.9072 112.837 20.9072C114.06 20.9072 115.146 20.5524 115.914 20.0041C116.682 19.4551 117.099 18.7418 117.099 18.006C117.099 17.2701 116.682 16.5568 115.914 16.0078C115.146 15.4595 114.06 15.1047 112.837 15.1047C111.614 15.1047 110.528 15.4595 109.761 16.0078C108.992 16.5568 108.575 17.2701 108.575 18.006Z"
            stroke="#7E7E7E" />
    <path d="M101.028 13.3193C99.8132 11.6351 96.8207 8.87569 94.5724 11.3109C92.3242 13.7461 90.1245 11.2333 89.3057 9.67248"
            stroke="#7E7E7E" />
    <path d="M41.5892 33.7443C39.8218 33.3171 36.4511 33.2638 37.1078 36.4692C37.7645 39.6745 34.9442 39.2866 33.4519 38.692"
            stroke="#828282" />
    <path d="M26.4984 14.5776L27.1566 18.9886L23.1649 20.9776L27.5634 21.7147L28.2216 26.1257L30.2818 22.1702L34.6803 22.9073L31.5551 19.7256L33.6153 15.7702L29.6236 17.7592L26.4984 14.5776Z"
            fill="#C4C4C4" />
    <path d="M72.9084 20.4812L73.0827 23.6247L69.4738 25.423L73.1904 25.5675L73.3647 28.711L75.4874 25.6568L79.2039 25.8013L76.7992 23.7692L78.9219 20.715L75.3131 22.5133L72.9084 20.4812Z"
            fill="#989898" />
    <path d="M62.2491 16.7964L57.9465 16.4928L57.6626 13.9731L55.2873 16.3051L50.9847 16.0015L53.8194 17.7463L51.4441 20.0783L55.5713 18.8247L58.4059 20.5696L58.122 18.05L62.2491 16.7964Z"
            fill="#BCBCBC" />
    <path d="M135.894 25.3015L128.728 31.2942L137.501 34.5045L135.894 25.3015Z" fill="#7E7E7E" />
    <path d="M66.9559 4.58579L67.3889 13.0263L75.1081 6.81555L66.9559 4.58579Z" fill="#C4C4C4" />
    <defs>
        <clipPath id="clip0">
            <rect width="24.4844" height="19.275" fill="white"
                    transform="matrix(-0.955907 -0.293669 -0.293669 0.955907 32.2632 56.1099)" />
        </clipPath>
    </defs>
</svg>
